<svg xmlns="http://www.w3.org/2000/svg" viewBox="0 0 583 724" class="char-svg zip"><style>.lid,.star-eye,.mouth-smile,.mouth-o{display:none}</style>
<g stroke-linejoin="round" stroke-linecap="round">
  <!-- ears (behind head) -->
  <g id="ear-left">
    <g transform="translate(150,150) rotate(-25)">
      <ellipse cx="0" cy="0" rx="46" ry="132" fill="#2f8ef0" stroke="#1553b8" stroke-width="12"/>
      <path d="M -44.6,-42 A 46 132 0 0 1 44.6,-42 Q 0,-14 -44.6,-42 Z" fill="#cfeeff"/>
      <ellipse cx="-8" cy="-98" rx="15" ry="10" fill="#ffffff"/>
    </g>
  </g>
  <g id="ear-right">
    <g transform="translate(433,150) rotate(25)">
      <ellipse cx="0" cy="0" rx="46" ry="132" fill="#2f8ef0" stroke="#1553b8" stroke-width="12"/>
      <path d="M -44.6,-42 A 46 132 0 0 1 44.6,-42 Q 0,-14 -44.6,-42 Z" fill="#cfeeff"/>
      <ellipse cx="8" cy="-98" rx="15" ry="10" fill="#ffffff"/>
    </g>
  </g>

  <!-- crest -->
  <g id="crest">
    <path d="M 276,216 C 256,166 266,106 322,60 C 312,102 328,118 356,111 C 342,137 366,149 392,139 C 384,182 348,214 310,224 C 295,228 283,225 276,216 Z"
          fill="#ffd23e" stroke="#f2900a" stroke-width="11"/>
  </g>

  <!-- arms (behind body) -->
  <g id="arm-left">
    <path d="M 200,450 C 154,431 102,413 64,404 C 38,398 20,407 20,423 C 20,434 30,440 46,440 C 37,449 44,461 60,461 C 102,465 148,481 192,500 C 214,509 220,458 200,450 Z"
          fill="#2e8bf2" stroke="#1553b8" stroke-width="11"/>
  </g>
  <g id="arm-right">
    <path d="M 383,450 C 429,431 481,413 519,404 C 545,398 563,407 563,423 C 563,434 553,440 537,440 C 546,449 539,461 523,461 C 481,465 435,481 391,500 C 369,509 363,458 383,450 Z"
          fill="#2e8bf2" stroke="#1553b8" stroke-width="11"/>
  </g>

  <!-- backpack side bags -->
  <path d="M 176,470 C 158,482 150,518 156,556 C 160,582 174,594 194,592 L 214,586 L 214,474 Z" fill="#ff7a26" stroke="#cf5a09" stroke-width="10"/>
  <path d="M 407,470 C 425,482 433,518 427,556 C 423,582 409,594 389,592 L 369,586 L 369,474 Z" fill="#ff7a26" stroke="#cf5a09" stroke-width="10"/>

  <!-- body -->
  <g id="body">
    <path d="M 208,436 C 192,506 188,584 197,626 C 202,652 220,664 244,665 C 261,666 270,657 271,642 L 273,628 C 282,634 300,634 309,628 L 311,642 C 312,657 321,666 338,665 C 362,664 380,652 385,626 C 394,584 390,506 374,436 C 324,466 258,466 208,436 Z"
          fill="#2e8bf2" stroke="#1553b8" stroke-width="12"/>
    <!-- straps -->
    <path d="M 238,448 C 230,482 227,512 229,542" fill="none" stroke="#ff7a26" stroke-width="24"/>
    <path d="M 345,448 C 353,482 356,512 354,542" fill="none" stroke="#ff7a26" stroke-width="24"/>
    <rect x="217" y="516" width="24" height="27" rx="8" fill="#ffd23e" stroke="#cf5a09" stroke-width="5"/>
    <rect x="342" y="516" width="24" height="27" rx="8" fill="#ffd23e" stroke="#cf5a09" stroke-width="5"/>
    <!-- belly -->
    <ellipse cx="291" cy="548" rx="74" ry="90" fill="#b5e3ff"/>
    <!-- feet -->
    <path d="M 206,646 C 200,678 212,698 242,700 C 272,702 288,691 288,670 L 288,638 C 262,652 226,653 206,646 Z" fill="#ffb020" stroke="#e08700" stroke-width="10"/>
    <path d="M 377,646 C 383,678 371,698 341,700 C 311,702 295,691 295,670 L 295,638 C 321,652 357,653 377,646 Z" fill="#ffb020" stroke="#e08700" stroke-width="10"/>
    <ellipse cx="245" cy="678" rx="16" ry="6" fill="#ffe9a8"/>
    <ellipse cx="338" cy="678" rx="16" ry="6" fill="#ffe9a8"/>
  </g>

  <!-- head + face -->
  <g id="face">
    <path d="M 291,206 C 210,206 140,244 116,306 C 96,356 100,404 132,436 C 166,470 224,482 291,482 C 358,482 416,470 450,436 C 482,404 486,356 466,306 C 442,244 372,206 291,206 Z"
          fill="#2e8bf2" stroke="#1553b8" stroke-width="13"/>
    <ellipse cx="212" cy="246" rx="32" ry="13" fill="#7fc4ff" transform="rotate(-22 212 246)"/>
    <path d="M 291,318 C 278,278 244,264 210,274 C 168,286 150,322 152,366 C 154,428 210,472 291,472 C 372,472 428,428 430,366 C 432,322 414,286 372,274 C 338,264 304,278 291,318 Z"
          fill="#aadcff"/>
  </g>

  <!-- eyes -->
  <g id="eye-left">
    <g class="eye-core">
      <ellipse cx="240" cy="300" rx="50" ry="57" fill="#ffffff" stroke="#132a5c" stroke-width="10"/>
      <ellipse cx="242" cy="305" rx="42" ry="47" fill="#16367d"/>
      <path d="M 204,324 A 42 47 0 0 0 280,324 Q 242,356 204,324 Z" fill="#2f6fe0"/>
      <ellipse cx="242" cy="298" rx="22" ry="24" fill="#0a1638"/>
      <ellipse class="shine" cx="227" cy="282" rx="13" ry="14" fill="#ffffff"/>
      <ellipse cx="257" cy="320" rx="6.5" ry="6.5" fill="#ffffff"/>
    </g>
    <ellipse class="lid" cx="240" cy="300" rx="53" ry="60" fill="#aadcff"/>
    <path class="star-eye" d="M 240,270 L 249,290 L 271,292 L 254,306 L 260,328 L 240,316 L 220,328 L 226,306 L 209,292 L 231,290 Z" fill="#ffd23e" stroke="#f2900a" stroke-width="4"/>
  </g>
  <g id="eye-right">
    <g class="eye-core">
      <ellipse cx="343" cy="300" rx="50" ry="57" fill="#ffffff" stroke="#132a5c" stroke-width="10"/>
      <ellipse cx="341" cy="305" rx="42" ry="47" fill="#16367d"/>
      <path d="M 303,324 A 42 47 0 0 0 379,324 Q 341,356 303,324 Z" fill="#2f6fe0"/>
      <ellipse cx="341" cy="298" rx="22" ry="24" fill="#0a1638"/>
      <ellipse class="shine" cx="326" cy="282" rx="13" ry="14" fill="#ffffff"/>
      <ellipse cx="356" cy="320" rx="6.5" ry="6.5" fill="#ffffff"/>
    </g>
    <ellipse class="lid" cx="343" cy="300" rx="53" ry="60" fill="#aadcff"/>
    <path class="star-eye" d="M 343,270 L 352,290 L 374,292 L 357,306 L 363,328 L 343,316 L 323,328 L 329,306 L 312,292 L 334,290 Z" fill="#ffd23e" stroke="#f2900a" stroke-width="4"/>
  </g>

  <!-- mouth -->
  <g id="mouth">
    <g class="mouth-open">
      <path d="M 257,374 Q 291,365 325,374 C 328,410 310,429 291,429 C 272,429 254,410 257,374 Z" fill="#132347" stroke="#132347" stroke-width="6"/>
      <path d="M 268,413 Q 291,399 314,413 C 308,424 300,427 291,427 C 282,427 274,424 268,413 Z" fill="#ff4d4d"/>
    </g>
    <path class="mouth-smile" d="M 262,382 Q 291,409 320,382" fill="none" stroke="#132347" stroke-width="11"/>
    <g class="mouth-o">
      <ellipse cx="291" cy="394" rx="15" ry="18" fill="#132347"/>
      <ellipse cx="291" cy="400" rx="7.5" ry="8.5" fill="#ff4d4d"/>
    </g>
  </g>
</g>
</svg>
